<svg xmlns="http://www.w3.org/2000/svg" version="1.1" xmlns:xlink="http://www.w3.org/1999/xlink" xmlns:svgjs="http://svgjs.dev/svgjs" width="2000" height="2250" viewBox="0 0 2000 2250"><g transform="matrix(1,0,0,1,3.410605131648481e-13,0)"><svg viewBox="0 0 320 360" data-background-color="#dedede" preserveAspectRatio="xMidYMid meet" height="2250" width="2000" xmlns="http://www.w3.org/2000/svg" xmlns:xlink="http://www.w3.org/1999/xlink"><g id="tight-bounds" transform="matrix(1,0,0,1,0,0)"><svg viewBox="0 0 320 360" height="360" width="320"><g><svg></svg></g><g><svg viewBox="0 0 320 360" height="360" width="320"><g><path xmlns="http://www.w3.org/2000/svg" d="M20.961 227.22l3.726 4.658-1.863-6.056c-0.466-2.795-3.726 0.466-1.863 1.398M25.153 224.425c1.397 2.329 2.795 4.658 2.795 6.987 0 3.261 2.795 4.658 5.123 5.589-3.261-3.726-5.124-13.974-7.918-12.576M204.017 26.929c7.918 0 15.371-0.932 23.756 0.931 20.495 5.124 37.729 15.371 49.374 29.811l32.606 52.169c1.397 13.042 4.192 27.482 3.726 43.319 3.261 0 2.795-4.658 6.521-5.59-3.726 9.316-5.59 20.961-6.521 34.469-2.329-7.453 0-18.632 0.466-24.687-3.261 5.124-5.124 1.397-5.124-0.932 0.466-3.726-1.397-3.261-2.795-4.658-5.124-4.658-8.384-9.782-12.11-17.7 2.329-6.055 2.795-14.905-4.658-19.563-2.329-1.397-5.124-3.726-6.521-7.453-1.863-5.124-5.124-11.179-4.193-19.097 0.466-2.329-6.987 5.124-11.179 1.863-18.166-12.576-36.332-27.016-58.224-39.127-11.645 0-20.029-4.192-24.221-9.316-3.726-4.658-0.932-10.713 4.658-11.179 3.261 0 6.987-0.932 9.782 0.932 0.466-1.863 2.329-4.192 4.657-4.192M157.904 16.215l0.932 0.466c4.658 0.932 6.987 7.453 12.11 5.124 0 3.261 0.466 6.521-0.466 8.85-1.397 3.726-5.59 3.726-8.85 3.726-31.208-1.863-49.374 11.179-68.471 22.358-5.124 3.261-10.713 5.59-14.906 9.782-20.029 18.632-41.921 35.866-47.045 70.335l-4.192 38.195c-0.466 4.192-5.124 8.384-4.192 13.508l3.26 22.824c-3.261-3.261-5.124 0.932-4.192 2.795 0.466 1.397 2.329 6.055 5.124 1.863 3.726 6.987 7.453 20.495 12.576 26.55 15.837 18.632 36.332 35.4 53.101 52.169 4.192-0.932 7.453-0.932 8.384-3.727 1.397 2.795-1.397 5.59-3.726 6.056 7.453 4.658 15.837 8.85 27.016 9.781 14.44 0.932 27.948 3.261 40.524 6.522 6.521-1.863 13.042-2.795 20.029-3.261 2.329 0 3.726-3.726 6.521-4.658l0.466-4.658c2.795 4.192 2.329-1.397 0.466-4.192 3.261 2.795 4.192 5.124 5.589 6.987 0-1.397 3.726-6.521 3.727-0.466l0.931-6.055c1.397-0.932 1.863 5.124 3.261 0.931 1.397-4.192 4.192-0.932 6.987-2.329-0.932 1.863-0.466 5.59 2.794 3.261l3.727-3.261c2.329 5.59 6.055 3.261 7.918 2.329 20.495-13.042 40.99-28.413 60.553-43.784l-0.466 6.055 2.329-7.453c2.329 2.329 4.192 0.466 5.124-0.931 2.795-4.658 6.521-9.316 12.577-13.508-7.453 20.029-16.303 35.866-27.482 48.908l-4.658 5.59c0 3.261-0.932 7.453-4.658 7.918-1.863 0.466-5.59-0.932-8.384 1.863-1.397 1.863 3.261 5.59-0.466 2.795-3.261-2.329-6.521 0-10.248 0.932-2.795 0.932 1.863 3.726 2.795 5.589 0.932 1.863 1.863 3.726 1.398 6.056l-5.124-5.59c-6.055 3.261-9.782 9.316-14.906 13.974-2.329 1.863-1.397 5.124-1.397 7.918-3.261 0-6.987-0.932-8.85 0.932-1.397 1.863-0.932 4.658-0.932 7.453-4.658-0.466-5.124-7.453-9.315-6.056-4.192 0.932-8.85 1.397-12.577 3.727 2.795 5.59-4.658 2.329-3.726 3.26-6.987-4.192-13.042-7.453-20.495-4.658-15.837-5.124-35.4-2.795-49.84-0.931 0-2.329 0.466-4.658-0.466-5.124-0.932 2.329-3.726 1.397-3.26 1.397-8.85-6.055-17.7-9.782-27.016-14.905-8.384 0.932-16.303-3.261-18.632-5.59-6.521-6.055-13.974-2.795-20.029-4.192-13.042-3.261-17.7-16.769-19.098-26.084-0.932-4.658-4.658-6.521-6.055-6.056-6.055-19.563-15.371-37.263-22.824-55.429-1.863-4.658-1.397-9.316-1.397-14.44 2.329 0.932 4.658 0.466 4.192-2.794-2.329-15.371-7.918-27.016-13.974-38.195 3.261-15.837 3.726-34.469 11.179-48.443 6.521-12.576 18.632-19.098 27.016-29.811 2.795-3.726 2.795-8.85 5.59-12.11 9.316-9.316 18.632-19.098 28.879-27.482 4.658-3.726 10.247 0 17.234-1.397 2.329-8.384 11.645-15.837 20.495-13.508 3.726 0.932 11.179-8.85 13.508-9.782 3.726-1.397 1.863 3.726 1.863 6.987 8.85-6.987 20.961-10.713 32.14-14.906" fill="#ffffff" fill-rule="nonzero" stroke="none" stroke-width="1" stroke-linecap="butt" stroke-linejoin="miter" stroke-miterlimit="10" stroke-dasharray="" stroke-dashoffset="0" font-family="none" font-weight="none" font-size="none" text-anchor="none" style="mix-blend-mode: normal" data-fill-palette-color="tertiary"></path></g><g transform="matrix(1,0,0,1,64,132.75997466751107)"><svg viewBox="0 0 192 94.48005066497784" height="94.48005066497784" width="192"><g><svg viewBox="0 0 192 94.48005066497784" height="94.48005066497784" width="192"><g><svg viewBox="0 0 192 94.48005066497784" height="94.48005066497784" width="192"><g><svg viewBox="0 0 192 94.48005066497784" height="94.48005066497784" width="192"><g id="textblocktransform"><svg viewBox="0 0 192 94.48005066497784" height="94.48005066497784" width="192" id="textblock"><g><svg viewBox="0 0 192 94.48005066497784" height="94.48005066497784" width="192"><g transform="matrix(1,0,0,1,0,0)"><svg width="192" viewBox="4.489999771118164 -37.70000076293945 77.0999984741211 37.94000244140625" height="94.48005066497784" data-palette-color="#374151"><path d="M39.21-24.51L39.21-24.51Q39.21-23.44 39.09-21.92 38.96-20.41 38.7-18.85 38.43-17.29 37.94-15.92 37.45-14.55 36.72-13.77L36.72-13.77Q36.43-13.43 34.84-13.11 33.25-12.79 31.03-12.48 28.81-12.16 26.27-11.87 23.73-11.57 21.46-11.35 19.19-11.13 17.53-10.99 15.87-10.84 15.43-10.84L15.43-10.84 15.04-0.68Q13.53-0.59 12.06-0.66 10.6-0.73 9.08-0.73L9.08-0.73Q8.11-0.73 7.13-0.68 6.15-0.63 5.18-0.54L5.18-0.54Q5.18-5.13 5.18-9.62 5.18-14.11 4.98-18.7L4.98-18.7Q4.83-22.85 4.71-26.95 4.59-31.05 4.49-35.21L4.49-35.21Q9.52-35.55 14.62-36.06 19.73-36.57 24.8-36.57L24.8-36.57Q25.68-36.57 27.59-36.4 29.49-36.23 31.59-35.86 33.69-35.5 35.47-34.96 37.26-34.42 37.84-33.74L37.84-33.74Q38.23-33.3 38.5-32.03 38.77-30.76 38.92-29.32 39.06-27.88 39.14-26.51 39.21-25.15 39.21-24.51ZM25.54-24.85L25.54-24.85Q25.54-25.29 25.49-25.98 25.44-26.66 25.32-27.32 25.2-27.98 24.95-28.54 24.71-29.1 24.32-29.35L24.32-29.35Q24.07-29.49 23.54-29.59 23-29.69 22.41-29.74 21.83-29.79 21.29-29.81 20.75-29.83 20.51-29.83L20.51-29.83Q18.7-29.83 16.89-29.64 15.09-29.44 13.23-29.15L13.23-29.15Q13.38-27.69 13.4-26.27 13.43-24.85 13.43-23.44L13.43-23.44Q13.43-21.14 13.57-18.8L13.57-18.8Q14.21-18.8 15.77-18.87 17.33-18.95 19.04-19.12 20.75-19.29 22.27-19.6 23.78-19.92 24.32-20.46L24.32-20.46Q25.2-21.29 25.37-22.49 25.54-23.68 25.54-24.85ZM81.59-24.17L81.59-24.17Q81.59-23.34 81.49-22.61 81.39-21.88 81.15-21.09L81.15-21.09Q80.86-20.26 80.03-19.51 79.2-18.75 78.17-18.09 77.15-17.43 76.07-16.97 75-16.5 74.27-16.26L74.27-16.26Q74.51-16.21 75.24-16.09 75.97-15.97 76.78-15.77 77.59-15.58 78.27-15.31 78.95-15.04 79.15-14.75L79.15-14.75Q79.49-14.16 79.71-13.31 79.93-12.45 80.03-11.5 80.12-10.55 80.17-9.64 80.22-8.74 80.22-8.06L80.22-8.06Q80.22-7.81 80.22-7.54 80.22-7.28 80.17-7.03L80.17-7.03Q80.08-6.54 79.49-5.74 78.9-4.93 78.12-4.1 77.34-3.27 76.58-2.56 75.83-1.86 75.44-1.56L75.44-1.56Q74.9-1.17 74.39-0.88 73.87-0.59 73.29-0.34L73.29-0.34Q72.85-0.15 71.41-0.05 69.97 0.05 68.36 0.12 66.75 0.2 65.33 0.22 63.91 0.24 63.43 0.24L63.43 0.24Q59.52 0.24 55.71 0.12 51.9 0 48-0.2L48-0.2Q48.09-3.66 48.14-7.1 48.19-10.55 48.19-14.06L48.19-14.06Q48.19-18.02 47.95-21.92 47.7-25.83 47.41-29.74L47.41-29.74 43.65-30.08Q43.41-32.03 43.28-33.91 43.16-35.79 42.97-37.7L42.97-37.7Q46.97-37.6 50.97-37.5 54.98-37.4 58.98-37.3L58.98-37.3Q60.69-37.26 63.33-36.99 65.96-36.72 68.72-36.28 71.48-35.84 73.95-35.21 76.41-34.57 77.83-33.79L77.83-33.79Q78.9-33.2 79.61-32.03 80.32-30.86 80.76-29.47 81.2-28.08 81.39-26.66 81.59-25.24 81.59-24.17ZM68.6-24.37L68.6-24.37Q68.6-24.85 68.55-25.61 68.5-26.37 68.36-27.15 68.21-27.93 67.97-28.61 67.72-29.3 67.38-29.74L67.38-29.74Q67.28-29.88 66.84-29.98 66.4-30.08 65.89-30.13 65.38-30.18 64.89-30.18 64.4-30.18 64.26-30.18L64.26-30.18Q61.81-30.18 59.42-29.91 57.03-29.64 54.64-29.25L54.64-29.25Q54.93-26.86 55.17-24.46 55.42-22.07 55.76-19.68L55.76-19.68Q56.35-19.68 58.05-19.78 59.76-19.87 61.69-20.02 63.62-20.17 65.28-20.39 66.94-20.61 67.43-20.9L67.43-20.9Q68.26-21.44 68.43-22.46 68.6-23.49 68.6-24.37ZM68.21-10.6L68.21-10.6Q68.21-11.33 68.02-12.08 67.82-12.84 67.23-13.33L67.23-13.33Q67.09-13.48 66.55-13.57 66.01-13.67 65.43-13.7 64.84-13.72 64.3-13.75 63.77-13.77 63.57-13.77L63.57-13.77Q61.47-13.77 59.42-13.55 57.37-13.33 55.32-13.09L55.32-13.09 56.1-6.88Q56.35-6.88 57.25-6.93 58.15-6.98 59.35-7.06 60.54-7.13 61.89-7.23 63.23-7.32 64.4-7.47 65.57-7.62 66.4-7.79 67.23-7.96 67.43-8.2L67.43-8.2Q67.87-8.74 68.04-9.33 68.21-9.91 68.21-10.6Z" opacity="1" transform="matrix(1,0,0,1,0,0)" fill="#ffffff" class="wordmark-text-0" data-fill-palette-color="primary" id="text-0"></path></svg></g></svg></g></svg></g></svg></g><g></g></svg></g></svg></g></svg></g></svg></g><defs></defs></svg><rect width="320" height="360" fill="none" stroke="none" visibility="hidden"></rect></g></svg></g></svg>